<svg xmlns="http://www.w3.org/2000/svg" width="1920" height="20" viewBox="0 0 1920 20">
  <defs>
    <style>
      .cls-1 {
        fill: #fff;
        fill-rule: evenodd;
      }
    </style>
  </defs>
  <path id="BG" class="cls-1" d="M1920,0l-19.08,20L1881.7,0l-19.2,20L1843.29,0l-19.21,20L1804.87,0l-19.2,20L1766.46,0l-19.2,20L1728.05,0l-19.2,20-19.2-20-19.21,20-19.2-20-19.2,20L1612.83,0l-19.2,20L1574.42,0l-19.2,20-19.2-20-19.21,20-19.2-20-19.2,20L1459.2,0l-19.2,20L1420.8,0l-19.2,20L1382.4,0l-19.2,20L1343.99,0l-19.2,20-19.2-20-19.2,20-19.2-20-19.2,20-19.2-20-19.2,20-19.2-20-19.19,20L1152,0l-19.2,20L1113.6,0l-19.2,20L1075.19,0l-19.2,20-19.2-20-19.2,20-19.2-20-19.2,20-19.2-20-19.2,20L921.58,0l-19.2,20-19.2-20-19.2,20-19.2-20-19.2,20-19.2-20-19.2,20-19.2-20-19.2,20-19.2-20-19.2,20-19.2-20-19.2,20-19.2-20-19.2,20L614.37,0l-19.2,20L575.97,0l-19.2,20L537.57,0l-19.2,20-19.2-20-19.2,20-19.2-20-19.2,20-19.2-20-19.2,20-19.2-20-19.2,20-19.2-20-19.2,20-19.2-20-19.2,20-19.2-20-19.2,20-19.2-20-19.2,20-19.2-20-19.2,20-19.2-20-19.2,20-19.2-20-19.2,20L76.79,0l-19.2,20L38.4,0l-19.2,20L0,0H1920Z"/>
</svg>
